<svg width="440" height="191" viewBox="0 0 440 191" fill="none" xmlns="http://www.w3.org/2000/svg">
<g clip-path="url(#clip0)">
<g filter="url(#filter0_d)">
<path d="M194.8 32.6264C179.863 11.2544 156.025 8.01159 133.174 21.2048C108.728 35.3184 98.829 62.7632 116.318 93.0544C133.73 123.213 161.992 128.802 186.969 114.381C213.541 99.0403 216.367 72.8449 208.709 56.7177L183.63 70.961C186.864 79.4268 184.16 87.4244 175.126 92.6403C163.124 99.5693 151.263 95.0807 141.649 78.4294C132.547 62.6638 133.858 49.3889 146.257 42.2298C155.735 36.7582 164.359 39.2189 169.823 47.0469L194.8 32.6264Z" fill="url(#paint0_linear)"/>
<path d="M42.0546 123L48.0886 102.955H82.6568L88.6909 123H119.373L84.8046 18.2727H45.9409L11.3727 123H42.0546ZM54.5318 81.6818L64.9636 47.1136H65.7818L76.2136 81.6818H54.5318ZM215.072 123H290.345V100.091H243.504V82.0909H286.663V59.1818H243.504V41.1818H290.549V18.2727H215.072V123Z" fill="url(#paint1_linear)"/>
</g>
<g filter="url(#filter1_d)">
<path d="M167.475 175.288C164.979 175.288 162.579 174.888 160.275 174.088C158.003 173.288 156.243 172.232 154.995 170.92L156.387 168.184C157.603 169.4 159.219 170.392 161.235 171.16C163.251 171.896 165.331 172.264 167.475 172.264C170.483 172.264 172.739 171.72 174.243 170.632C175.747 169.512 176.499 168.072 176.499 166.312C176.499 164.968 176.083 163.896 175.251 163.096C174.451 162.296 173.459 161.688 172.275 161.272C171.091 160.824 169.443 160.344 167.331 159.832C164.803 159.192 162.787 158.584 161.283 158.008C159.779 157.4 158.483 156.488 157.395 155.272C156.339 154.056 155.811 152.408 155.811 150.328C155.811 148.632 156.259 147.096 157.155 145.72C158.051 144.312 159.427 143.192 161.283 142.36C163.139 141.528 165.443 141.112 168.195 141.112C170.115 141.112 171.987 141.384 173.811 141.928C175.667 142.44 177.267 143.16 178.611 144.088L177.411 146.92C176.003 145.992 174.499 145.304 172.899 144.856C171.299 144.376 169.731 144.136 168.195 144.136C165.251 144.136 163.027 144.712 161.523 145.864C160.051 146.984 159.315 148.44 159.315 150.232C159.315 151.576 159.715 152.664 160.515 153.496C161.347 154.296 162.371 154.92 163.587 155.368C164.835 155.784 166.499 156.248 168.579 156.76C171.043 157.368 173.027 157.976 174.531 158.584C176.067 159.16 177.363 160.056 178.419 161.272C179.475 162.456 180.003 164.072 180.003 166.12C180.003 167.816 179.539 169.368 178.611 170.776C177.715 172.152 176.323 173.256 174.435 174.088C172.547 174.888 170.227 175.288 167.475 175.288ZM203.402 144.472H191.594V141.4H218.762V144.472H206.954V175H203.402V144.472ZM246.916 175.288C242.564 175.288 239.172 174.04 236.74 171.544C234.308 169.048 233.092 165.416 233.092 160.648V141.4H236.644V160.504C236.644 164.408 237.524 167.32 239.284 169.24C241.044 171.16 243.588 172.12 246.916 172.12C250.276 172.12 252.836 171.16 254.596 169.24C256.356 167.32 257.236 164.408 257.236 160.504V141.4H260.692V160.648C260.692 165.416 259.476 169.048 257.044 171.544C254.644 174.04 251.268 175.288 246.916 175.288ZM280.995 141.4H294.675C298.227 141.4 301.363 142.12 304.083 143.56C306.803 144.968 308.915 146.952 310.419 149.512C311.923 152.04 312.675 154.936 312.675 158.2C312.675 161.464 311.923 164.376 310.419 166.936C308.915 169.464 306.803 171.448 304.083 172.888C301.363 174.296 298.227 175 294.675 175H280.995V141.4ZM294.483 171.928C297.427 171.928 300.003 171.352 302.211 170.2C304.419 169.016 306.131 167.4 307.347 165.352C308.563 163.272 309.171 160.888 309.171 158.2C309.171 155.512 308.563 153.144 307.347 151.096C306.131 149.016 304.419 147.4 302.211 146.248C300.003 145.064 297.427 144.472 294.483 144.472H284.547V171.928H294.483ZM330.252 141.4H333.804V175H330.252V141.4ZM369.024 175.288C365.696 175.288 362.672 174.552 359.952 173.08C357.264 171.576 355.152 169.528 353.616 166.936C352.112 164.344 351.36 161.432 351.36 158.2C351.36 154.968 352.112 152.056 353.616 149.464C355.152 146.872 357.264 144.84 359.952 143.368C362.672 141.864 365.696 141.112 369.024 141.112C372.352 141.112 375.344 141.848 378 143.32C380.688 144.792 382.8 146.84 384.336 149.464C385.872 152.056 386.64 154.968 386.64 158.2C386.64 161.432 385.872 164.36 384.336 166.984C382.8 169.576 380.688 171.608 378 173.08C375.344 174.552 372.352 175.288 369.024 175.288ZM369.024 172.12C371.68 172.12 374.08 171.528 376.224 170.344C378.368 169.128 380.048 167.464 381.264 165.352C382.48 163.208 383.088 160.824 383.088 158.2C383.088 155.576 382.48 153.208 381.264 151.096C380.048 148.952 378.368 147.288 376.224 146.104C374.08 144.888 371.68 144.28 369.024 144.28C366.368 144.28 363.952 144.888 361.776 146.104C359.632 147.288 357.936 148.952 356.688 151.096C355.472 153.208 354.864 155.576 354.864 158.2C354.864 160.824 355.472 163.208 356.688 165.352C357.936 167.464 359.632 169.128 361.776 170.344C363.952 171.528 366.368 172.12 369.024 172.12ZM413.466 175.288C410.97 175.288 408.57 174.888 406.266 174.088C403.994 173.288 402.234 172.232 400.986 170.92L402.378 168.184C403.594 169.4 405.21 170.392 407.226 171.16C409.242 171.896 411.322 172.264 413.466 172.264C416.474 172.264 418.73 171.72 420.234 170.632C421.738 169.512 422.49 168.072 422.49 166.312C422.49 164.968 422.074 163.896 421.242 163.096C420.442 162.296 419.45 161.688 418.266 161.272C417.082 160.824 415.434 160.344 413.322 159.832C410.794 159.192 408.778 158.584 407.274 158.008C405.77 157.4 404.474 156.488 403.386 155.272C402.33 154.056 401.802 152.408 401.802 150.328C401.802 148.632 402.25 147.096 403.146 145.72C404.042 144.312 405.418 143.192 407.274 142.36C409.13 141.528 411.434 141.112 414.186 141.112C416.106 141.112 417.978 141.384 419.802 141.928C421.658 142.44 423.258 143.16 424.602 144.088L423.402 146.92C421.994 145.992 420.49 145.304 418.89 144.856C417.29 144.376 415.722 144.136 414.186 144.136C411.242 144.136 409.018 144.712 407.514 145.864C406.042 146.984 405.306 148.44 405.306 150.232C405.306 151.576 405.706 152.664 406.506 153.496C407.338 154.296 408.362 154.92 409.578 155.368C410.826 155.784 412.49 156.248 414.57 156.76C417.034 157.368 419.018 157.976 420.522 158.584C422.058 159.16 423.354 160.056 424.41 161.272C425.466 162.456 425.994 164.072 425.994 166.12C425.994 167.816 425.53 169.368 424.602 170.776C423.706 172.152 422.314 173.256 420.426 174.088C418.538 174.888 416.218 175.288 413.466 175.288Z" fill="url(#paint2_linear)"/>
</g>
</g>
<defs>
<filter id="filter0_d" x="-13.6273" y="-11.6317" width="329.176" height="159.632" filterUnits="userSpaceOnUse" color-interpolation-filters="sRGB">
<feFlood flood-opacity="0" result="BackgroundImageFix"/>
<feColorMatrix in="SourceAlpha" type="matrix" values="0 0 0 0 0 0 0 0 0 0 0 0 0 0 0 0 0 0 127 0"/>
<feOffset/>
<feGaussianBlur stdDeviation="12.5"/>
<feColorMatrix type="matrix" values="0 0 0 0 0.745833 0 0 0 0 0.537 0 0 0 0 0 0 0 0 1 0"/>
<feBlend mode="normal" in2="BackgroundImageFix" result="effect1_dropShadow"/>
<feBlend mode="normal" in="SourceGraphic" in2="effect1_dropShadow" result="shape"/>
</filter>
<filter id="filter1_d" x="144.995" y="131.112" width="290.999" height="54.176" filterUnits="userSpaceOnUse" color-interpolation-filters="sRGB">
<feFlood flood-opacity="0" result="BackgroundImageFix"/>
<feColorMatrix in="SourceAlpha" type="matrix" values="0 0 0 0 0 0 0 0 0 0 0 0 0 0 0 0 0 0 127 0"/>
<feOffset/>
<feGaussianBlur stdDeviation="5"/>
<feColorMatrix type="matrix" values="0 0 0 0 1 0 0 0 0 0.9685 0 0 0 0 0.8875 0 0 0 1 0"/>
<feBlend mode="normal" in2="BackgroundImageFix" result="effect1_dropShadow"/>
<feBlend mode="normal" in="SourceGraphic" in2="effect1_dropShadow" result="shape"/>
</filter>
<linearGradient id="paint0_linear" x1="123.93" y1="8.25" x2="193.93" y2="129.494" gradientUnits="userSpaceOnUse">
<stop offset="0.473958" stop-color="white"/>
<stop offset="1" stop-color="#FFE49D"/>
</linearGradient>
<linearGradient id="paint1_linear" x1="153" y1="13" x2="153" y2="129" gradientUnits="userSpaceOnUse">
<stop offset="0.473958" stop-color="white"/>
<stop offset="1" stop-color="#FFE49D"/>
</linearGradient>
<linearGradient id="paint2_linear" x1="644.577" y1="-71.76" x2="743.874" y2="343.931" gradientUnits="userSpaceOnUse">
<stop stop-color="#FDFDFD"/>
<stop offset="1" stop-color="#BE8900"/>
</linearGradient>
<clipPath id="clip0">
<rect width="440" height="191" fill="white"/>
</clipPath>
</defs>
</svg>
