<svg width="124" height="95" viewBox="0 0 124 95" fill="none" xmlns="http://www.w3.org/2000/svg">
<g filter="url(#filter0_f)">
<path d="M4.99219 85L26.5078 8.35938L54.3516 10.0469L69.2578 85L58.9922 86.6875L50.9766 67.5625L20.3203 70.0938L16.3828 86.6875L4.99219 85ZM31.5703 22.8438L22.4297 61.2344L48.4453 61.5156L32.4141 22.8438H31.5703ZM80.6484 34.2344C80.6484 23.4531 86.4141 13.4688 97.9453 4.28125L119.039 18.3438C109.477 24.3438 104.695 30.7188 104.695 37.4688C104.695 40.2812 105.633 43.2812 107.508 46.4688C109.477 49.5625 111.445 52.6562 113.414 55.75C115.383 58.8438 116.367 61.75 116.367 64.4688C116.367 75.5312 108.68 84.1094 93.3047 90.2031L87.8203 82.75C91.5703 80.6875 94.1484 78.7188 95.5547 76.8438C97.0547 74.875 97.8047 72.7188 97.8047 70.375C97.8047 68.0312 96.9141 65.4531 95.1328 62.6406C93.3516 59.7344 91.3828 57.1094 89.2266 54.7656C87.0703 52.3281 85.1016 49.2812 83.3203 45.625C81.5391 41.875 80.6484 38.0781 80.6484 34.2344Z" fill="#F1DB0F"/>
</g>
<defs>
<filter id="filter0_f" x="0.992188" y="0.28125" width="122.047" height="93.9219" filterUnits="userSpaceOnUse" color-interpolation-filters="sRGB">
<feFlood flood-opacity="0" result="BackgroundImageFix"/>
<feBlend mode="normal" in="SourceGraphic" in2="BackgroundImageFix" result="shape"/>
<feGaussianBlur stdDeviation="2" result="effect1_foregroundBlur"/>
</filter>
</defs>
</svg>
